<mxfile host="app.diagrams.net" modified="2023-09-19T18:55:00.443Z" agent="Mozilla/5.0 (Macintosh; Intel Mac OS X 10_15_7) AppleWebKit/605.1.15 (KHTML, like Gecko) Version/16.5 Safari/605.1.15" version="21.7.5" etag="1-tNKKPeDK2uIuM_tQIz" type="github">
  <diagram name="Page-1" id="KQFRQWbRqa7coE92j-J9">
    <mxGraphModel>
      <root>
        <mxCell id="0" />
        <mxCell id="1" parent="0" />
      </root>
    </mxGraphModel>
  </diagram>
</mxfile>
